<?xml version="1.0" encoding="UTF-8"?><svg xmlns="http://www.w3.org/2000/svg" viewBox="0 0 851.19 171.07"><g id="a"/><g id="b"><g id="c"><g><path d="M54.07,168.64c-2.46-.16-15.11,0-17.58-.66-2.96-.66-3.94-7.23-4.76-10.18C27.46,143.34,3.15,63.35,.19,48.56c-.16-.82-.33-1.64,0-2.46,1.31-3.29,8.05-2.79,11.5-2.96,7.72,0,15.44-.16,23-.16,2.79,0,4.11,4.27,4.76,6.9,5.75,24.15,11.33,48.29,16.92,72.44,8.05-23,14.45-46.49,21.35-69.81,.82-2.63,2.14-7.06,4.93-6.9,7.88,.33,15.6,.82,23.32,1.48,2.46,.33,9.2,.16,10.84,2.14,1.31,1.64-.49,6.24-1.15,8.38-11.33,34.66-26.77,68-38.93,102.5-.99,2.96-2.3,9.2-5.42,9.36-2.46,.33-14.78-.66-17.25-.82Z"/><path d="M131.32,166.1c-2.35,0-8.28,.49-9.77-1.24-.74-.74-.74-1.85-.74-2.84-1.11-26.21,.74-52.54,.74-78.74,0-1.48-.25-6.18,.74-7.42,1.24-1.61,6.06-.99,8.04-.99,4.33,.12,8.65,0,12.98-.12,1.85-.12,6.06-.12,7.17,1.24,1.24,1.36,.49,6.67,.37,8.41-.74,25.59-2.1,51.05-1.98,76.52,0,1.36,0,4.08-1.11,4.7-.62,.37-3.09,.49-3.83,.62-4.2,.12-8.41,0-12.61-.12Z"/><path d="M166.3,168.94c-1.48-.25-3.09-.87-3.83-2.1-.87-1.48-.87-3.46-1.11-5.19-.37-4.57-.49-9.15,.12-13.72,.25-1.24,.74-4.33,1.98-4.94,.74-.37,3.58,.12,4.45,.25,5.44,.74,10.88,.74,16.32,.25,2.35-.25,4.82-.49,7.05-1.36,1.11-.37,2.6-.99,2.97-2.23,.25-.99-.62-2.1-1.36-2.84-2.35-1.98-5.32-3.21-8.16-4.2-8.16-3.21-16.56-7.54-22.13-14.46-4.33-5.19-6.92-12.24-6.67-19.04,.25-4.82,2.1-9.77,5.07-13.72,4.45-5.93,11.37-10.14,18.29-12.61,9.15-3.09,19.65-3.83,28.8-.87,5.07,1.61,9.89,4.57,13.35,8.53,4.94,5.56,7.79,13.47,8.03,20.89,0,2.23,.74,4.82-.62,6.55-.49,.87-1.61,1.36-2.6,1.48-5.93,1.24-11.99,1.48-18.05,1.48-2.35,0-6.06,.25-6.3-2.1-.37-4.08-.25-8.41-2.1-12.11-2.6-5.81-10.75-5.19-13.1,.87-.87,2.35-.74,5.19,.25,7.54,.87,1.85,2.47,3.34,4.08,4.7,5.32,4.2,11.87,6.92,18.17,9.64,3.34,1.48,6.68,2.97,9.52,5.19,11.87,9.77,10.14,27.94-2.6,36.59-5.81,4.08-12.98,6.06-20.02,7.17-9.77,1.48-19.9,1.36-29.79,.37Z"/><path d="M266.92,167.33c-6.67-.49-13.6-2.35-18.79-6.43-3.46-2.6-6.06-6.55-7.66-10.51-2.23-5.44-3.34-11.37-3.96-17.31-1.98-17.92-2.97-36.22-2.47-54.27,0-.62,.25-1.36,.74-1.73,.62-.62,1.48-.87,2.35-1.11,3.09-.49,16.93-.37,20.02-.12,1.11,0,3.71,.49,4.45,1.36,.62,.87,.12,3.83,.12,4.94-.37,16.56-1.98,33.25,.37,49.57,.37,2.47,1.36,5.07,3.09,6.8,4.7,4.7,13.72,4.82,18.42,.12,2.23-2.23,3.71-5.69,3.83-8.9,.25-13.97-1.36-27.94-2.1-41.9-.12-2.97-.49-5.93-.49-8.9,0-.49,0-1.24,.37-1.73,1.11-1.85,6.18-1.61,8.28-1.73,2.23-.12,13.23-.37,15.33-.25,1.48,.12,2.1,.74,2.1,2.1,.62,8.41,1.85,52.91,1.11,61.31-.37,4.45-.99,8.9-2.6,13.1-1.73,4.2-4.57,8.41-8.53,10.75-4.2,2.47-9.27,3.46-14.09,4.2-6.55,.99-13.35,1.24-19.9,.62Z"/><path d="M374.71,168.44c-1.98,0-2.72-3.21-3.21-5.07-.99-3.83-1.73-7.66-2.6-11.37-7.91-.37-15.82,0-23.73-.37-.87,3.21-1.73,6.55-2.6,9.77-.62,1.98-1.48,5.19-3.58,5.07-5.93-.25-11.74-.62-17.68-1.11-1.85-.25-6.92-.12-8.03-1.61-.74-.87-.49-2.23-.12-3.34,8.53-27.19,20.4-53.15,30.16-79.98,.49-1.36,2.1-6.06,3.34-6.92,.62-.49,1.61-.12,2.47-.12,6.67,.25,13.47,.49,20.15,1.24,.49,0,2.47,.25,2.84,.37,1.85,.74,2.72,5.93,3.34,7.91,3.46,10.88,23.36,70.46,25.59,81.71,.12,.74,.12,1.61-.37,2.23-.62,.74-1.73,1.11-2.72,1.24-3.21,.49-20.03,.37-23.24,.37Zm-9.77-35.48c-1.85-8.16-3.58-16.32-6.3-24.23-2.97,7.91-5.44,15.95-7.91,24.1,4.7-.25,9.39-.25,14.22,.12Z"/><path d="M414.64,165.6c-2.47-.12-8.28,.25-9.64-1.73-.49-.74-.62-1.61-.62-2.47-.37-26.08,2.35-52.04,3.09-78.12,0-1.73-.12-6.92,.99-8.28,1.24-1.36,5.81-.74,7.79-.62,3.71,.25,7.54,.25,11.25,.25,2.23,0,7.79-.37,9.15,1.36,1.24,1.48,.25,6.8,.12,8.65-1.11,18.79-2.6,37.45-3.58,56.12,3.46,.12,23.98,.74,27.44,.74,.74,0,1.73,0,2.35,.49,.99,.74,.62,3.34,.49,4.45,0,1.24-.62,8.41-.62,9.52-.12,1.98,.12,8.53-.99,10.14-.49,.74-1.61,1.11-2.47,1.11-5.93,.25-38.94-1.48-44.75-1.61Z"/><path d="M584.04,119.48c-1.38-3.98-4.33-7.44-7.79-10.04-3.81-2.77-8.31-4.5-12.98-5.37,3.81-1.38,7.62-2.94,10.9-5.36,3.99-2.77,7.62-6.93,9.53-11.43,.83-2.13,1.32-4.41,1.56-6.7-3.67-.35-7.07-1.24-9.87-2.88-8.03-4.72-10.48-13.93-9.47-20.12-6.24,3.56-17.06,2.36-20.71-1.09-4.27-4.04-5.34-10.12-4.85-16.47-14.51-.32-37.91,.43-43.91,.69-7.97,.18-15.93-.69-23.54,.87-1.91,.52-4.33,1.56-3.12,3.12,.17,7.79,1.21,56.6,1.56,64.57,.69,15.92,.69,31.85,1.21,47.77,0,3.81,.35,7.62-.17,11.43,0,1.04,.69,1.73,1.73,1.73,2.59,1.21,12.63,.87,15.58,.69,4.5-.34,9-.69,13.5-.86,6.75-.17,41.72-1.91,48.3-3.12,8.31-1.73,16.27-5.19,23.19-9.87,2.95-1.9,5.54-4.5,7.27-7.44,2.6-4.5,3.81-9.87,3.99-15.06,0-5.02,0-10.39-1.91-15.06Zm-76.86-49.51c6.93-.52,13.85,0,20.6,.69,6.75,.7,14.2,4.5,12.98,11.26-.34,2.42-2.07,4.5-3.98,6.05-1.9,1.39-4.33,2.25-6.75,2.6-7.44,1.56-15.06,1.39-22.68,2.25-.17-7.62-.17-15.23-.17-22.85Zm37.39,58.34c-1.9,3.11-6.06,4.85-9.87,5.54-3.46,.52-22.85,1.21-26.31,1.38-.34-6.58-.52-13.33-.52-19.9,2.6-.52,15.93-1.22,18.53-1.22,3.11,.18,6.4,.18,9.34,1.04,2.25,.69,7.62,3.64,8.66,5.89,.87,1.56,1.21,5.54,.17,7.27Z"/><path d="M604.76,166.1c-2.35,0-8.28,.49-9.76-1.24-.74-.74-.74-1.85-.74-2.84-1.11-26.21,.74-52.54,.74-78.74,0-1.48-.25-6.18,.74-7.42,1.24-1.61,6.06-.99,8.04-.99,4.33,.12,8.65,0,12.98-.12,1.85-.12,6.06-.12,7.17,1.24,1.24,1.36,.49,6.67,.37,8.41-.74,25.59-2.1,51.05-1.98,76.52,0,1.36,0,4.08-1.11,4.7-.62,.37-3.09,.49-3.83,.62-4.2,.12-8.41,0-12.61-.12Z"/><path d="M653.83,165.6c-.87-.62-.99-1.85-1.11-2.84-1.85-20.52-1.85-41.29-2.47-61.93-4.94,.25-9.77,.49-14.59,1.11-2.72,.25-6.43,1.11-6.43-1.48-.12-2.84-.74-19.53-.74-22.37,0-.99,.12-2.23,1.11-2.35,22.99-1.85,46.11-1.48,69.22-2.47,1.36,0,3.09-.25,3.09,1.11,.37,6.67,.87,13.23,.74,19.9-.12,2.35,.37,5.81-1.85,5.93-2.84,.25-18.67,0-21.51,0,.25,20.02,.37,40.05,1.36,59.95,.12,1.36,.25,4.2-.87,4.94-.62,.49-3.71,.62-4.57,.74-3.83,.25-7.66,.37-11.5,.49-2.1,0-8.28,.62-9.89-.74Z"/><path d="M718.36,166.1c-2.23,0-8.41,.37-10.01-1.24-.62-.62-.74-1.85-.74-2.84-1.11-26.21,.74-52.41,.74-78.62,0-1.73-.37-6.55,.87-7.79,1.36-1.11,6.43-.74,8.28-.74,17.8,.37,35.6-.87,53.4-.37,.74,0,2.35,.12,2.6,.87,.12,.37,.25,2.1,.25,2.47,.12,4.2-.25,8.41-.5,12.73,0,2.35,.62,8.41-1.24,9.89-.87,.74-2.35,.37-3.46,.25-10.51-.74-20.89,0-31.4,0-.12,2.84-.25,5.81-.37,8.65,5.93-.12,11.74,.62,17.55,.37,2.47-.12,10.63-.99,12.73,.12,1.85,.99,1.11,5.19,.99,7.29-.12,3.34-.25,6.8-.37,10.14,0,1.98-.37,4.94-2.35,5.19-2.6,.25-17.06-.62-19.65-.62-3.21-.12-6.43,.25-9.64,.37v8.65c9.64-.12,19.28-.12,28.92-.12,1.98,0,5.07-.49,5.44,1.48,.99,5.81-.37,11.74-.37,17.55,.12,2.84,.87,6.67-1.85,6.8-16.69,.62-33.25-.12-49.82-.49Z"/><path d="M787.83,168.94c-1.48-.25-3.09-.87-3.83-2.1-.87-1.48-.87-3.46-1.11-5.19-.37-4.57-.49-9.15,.12-13.72,.25-1.24,.74-4.33,1.98-4.94,.74-.37,3.58,.12,4.45,.25,5.44,.74,10.88,.74,16.32,.25,2.35-.25,4.82-.49,7.05-1.36,1.11-.37,2.6-.99,2.97-2.23,.25-.99-.62-2.1-1.36-2.84-2.35-1.98-5.32-3.21-8.16-4.2-8.16-3.21-16.56-7.54-22.13-14.46-4.33-5.19-6.92-12.24-6.67-19.04,.25-4.82,2.1-9.77,5.07-13.72,4.45-5.93,11.37-10.14,18.29-12.61,9.15-3.09,19.65-3.83,28.8-.87,5.07,1.61,9.89,4.57,13.35,8.53,4.94,5.56,7.79,13.47,8.04,20.89,0,2.23,.74,4.82-.62,6.55-.49,.87-1.61,1.36-2.6,1.48-5.93,1.24-11.99,1.48-18.05,1.48-2.35,0-6.06,.25-6.3-2.1-.37-4.08-.25-8.41-2.1-12.11-2.6-5.81-10.75-5.19-13.1,.87-.87,2.35-.74,5.19,.25,7.54,.87,1.85,2.47,3.34,4.08,4.7,5.32,4.2,11.87,6.92,18.17,9.64,3.34,1.48,6.67,2.97,9.52,5.19,11.87,9.77,10.14,27.94-2.6,36.59-5.81,4.08-12.98,6.06-20.02,7.17-9.77,1.48-19.9,1.36-29.79,.37Z"/></g><path d="M609.38,68.03c-3.14-1.93-10.48-5.71-12.27-8.42-5.13-7.77-1.48-13.51-1.3-18.58-5.54-3.46-12.18-5.24-13.93-9.94-2.06-5.51,1.81-13.76,5.04-19.24,4.22,2.17,7.51,4.03,9.07,5.22,7.16,5.45,13.87,11.82,17.89,19.76,1.31,2.59,2.01,5.57,2.17,8.52,.08,1.44,.03,2.87-.14,4.24-.03,.19-.04,.38-.07,.57-.56,4.38-1.95,8.68-3.69,12.62-.78,1.77-1.69,3.56-2.77,5.26Z"/><polygon points="547.37 19.18 555.05 34.73 551.21 14.8 547.37 19.18"/><path d="M557.98,30.91c-.26-.81-.35-28.74-.35-28.74l6.84-2.17-6.48,30.91Z"/></g></g></svg>