<?xml version="1.0" encoding="UTF-8"?><svg xmlns="http://www.w3.org/2000/svg" xmlns:xlink="http://www.w3.org/1999/xlink" viewBox="0 0 1527.32 306.97"><defs><style>.t{fill:url(#r);}.u{fill:url(#l);}.v{fill:url(#m);}.w{fill:url(#f);}.x{fill:url(#p);}.y{fill:url(#g);}.a{fill:url(#i);}.aa{filter:url(#d);}.ab{fill:url(#h);}.ac{fill:url(#s);}.ad{fill:url(#n);}.ae{fill:url(#j);}.af{fill:url(#o);}.ag{fill:url(#q);}.ah{fill:url(#k);}</style><filter id="d" filterUnits="userSpaceOnUse"><feOffset dx="11.63" dy="13.56"/><feGaussianBlur result="e" stdDeviation="0"/><feFlood flood-color="#000" flood-opacity=".15"/><feComposite in2="e" operator="in"/><feComposite in="SourceGraphic"/></filter><linearGradient id="f" x1="53.38" y1="50.72" x2="181.96" y2="273.43" gradientTransform="matrix(1, 0, 0, 1, 0, 0)" gradientUnits="userSpaceOnUse"><stop offset="0" stop-color="#e2c9b1"/><stop offset=".04" stop-color="#e2c9a8"/><stop offset=".1" stop-color="#e2c991"/><stop offset=".18" stop-color="#e2c96b"/><stop offset=".27" stop-color="#e2c937"/><stop offset=".64" stop-color="#e2c937"/><stop offset=".71" stop-color="#e2bd37"/><stop offset=".83" stop-color="#e2b137"/><stop offset=".94" stop-color="#e2ad37"/><stop offset="1" stop-color="#e2c9b1"/></linearGradient><linearGradient id="g" x1="203.13" y1="145.27" x2="284.39" y2="286.02" xlink:href="#f"/><linearGradient id="h" x1="299.05" y1="142.45" x2="385.06" y2="291.42" xlink:href="#f"/><linearGradient id="i" x1="447.75" y1="122.85" x2="543.87" y2="289.33" xlink:href="#f"/><linearGradient id="j" x1="581.34" y1="155.36" x2="678.24" y2="323.19" xlink:href="#f"/><linearGradient id="k" x1="714.57" y1="145" x2="809.56" y2="309.51" xlink:href="#f"/><linearGradient id="l" x1="858.82" y1="67.9" x2="994.67" y2="303.21" xlink:href="#f"/><linearGradient id="m" x1="1052.64" y1="145.27" x2="1133.9" y2="286.02" xlink:href="#f"/><linearGradient id="n" x1="1160.21" y1="118.11" x2="1252.24" y2="277.52" xlink:href="#f"/><linearGradient id="o" x1="1280.6" y1="130.99" x2="1377.98" y2="299.66" xlink:href="#f"/><linearGradient id="p" x1="1414.28" y1="142.45" x2="1500.29" y2="291.42" xlink:href="#f"/><linearGradient id="q" x1="1049.88" y1="23.14" x2="1103.6" y2="116.2" xlink:href="#f"/><linearGradient id="r" x1="983.9" y1="29.53" x2="1001.1" y2="59.33" xlink:href="#f"/><linearGradient id="s" x1="995.08" y1="7.06" x2="1017.57" y2="46.01" xlink:href="#f"/></defs><g id="a"/><g id="b"><g id="c"><g class="aa"><g><path class="w" d="M97.01,302.6c-4.42-.29-27.12,0-31.54-1.18-5.31-1.18-7.07-12.97-8.55-18.27C49.27,257.21,5.65,113.67,.34,87.14c-.3-1.47-.59-2.95,0-4.42,2.36-5.89,14.44-5.01,20.63-5.31,13.85,0,27.71-.3,41.26-.3,5.01,0,7.37,7.66,8.55,12.38,10.32,43.33,20.34,86.65,30.36,129.98,14.44-41.26,25.94-83.41,38.32-125.26,1.47-4.72,3.83-12.67,8.84-12.38,14.15,.59,28,1.47,41.85,2.65,4.42,.59,16.51,.29,19.45,3.83,2.36,2.95-.88,11.2-2.06,15.03-20.34,62.19-48.04,122.02-69.85,183.92-1.77,5.31-4.13,16.51-9.73,16.8-4.42,.59-26.53-1.18-30.95-1.47Z"/><path class="y" d="M235.62,298.03c-4.21,0-14.86,.89-17.52-2.22-1.33-1.33-1.33-3.33-1.33-5.1-2-47.02,1.33-94.27,1.33-141.29,0-2.66-.44-11.09,1.33-13.31,2.22-2.88,10.87-1.77,14.42-1.77,7.76,.22,15.53,0,23.29-.22,3.33-.22,10.87-.22,12.86,2.22,2.22,2.44,.89,11.98,.66,15.08-1.33,45.91-3.77,91.6-3.55,137.29,0,2.44,0,7.32-2,8.43-1.11,.67-5.55,.89-6.88,1.11-7.54,.22-15.08,0-22.62-.22Z"/><path class="ab" d="M298.39,303.13c-2.66-.44-5.55-1.55-6.88-3.77-1.55-2.66-1.55-6.21-2-9.32-.67-8.21-.89-16.41,.22-24.62,.44-2.22,1.33-7.76,3.55-8.87,1.33-.67,6.43,.22,7.99,.44,9.76,1.33,19.52,1.33,29.28,.44,4.21-.44,8.65-.89,12.64-2.44,2-.67,4.66-1.78,5.32-3.99,.44-1.77-1.11-3.77-2.44-5.1-4.21-3.55-9.54-5.77-14.64-7.54-14.64-5.77-29.72-13.53-39.7-25.95-7.76-9.32-12.42-21.96-11.98-34.16,.44-8.65,3.77-17.52,9.09-24.62,7.99-10.65,20.41-18.19,32.83-22.62,16.41-5.55,35.27-6.88,51.68-1.55,9.09,2.88,17.74,8.21,23.95,15.3,8.87,9.98,13.97,24.18,14.42,37.48,0,3.99,1.33,8.65-1.11,11.76-.89,1.55-2.88,2.44-4.66,2.66-10.65,2.22-21.51,2.66-32.38,2.66-4.21,0-10.87,.44-11.31-3.77-.66-7.32-.44-15.08-3.77-21.74-4.66-10.42-19.3-9.32-23.51,1.55-1.55,4.21-1.33,9.32,.44,13.53,1.55,3.33,4.44,5.99,7.32,8.43,9.54,7.54,21.29,12.42,32.6,17.3,5.99,2.66,11.98,5.32,17.08,9.32,21.29,17.52,18.19,50.13-4.66,65.65-10.42,7.32-23.29,10.87-35.93,12.86-17.52,2.66-35.71,2.44-53.45,.67Z"/><path class="a" d="M478.94,300.25c-11.98-.89-24.4-4.21-33.71-11.53-6.21-4.66-10.87-11.76-13.75-18.85-3.99-9.76-5.99-20.41-7.1-31.05-3.55-32.16-5.32-64.99-4.44-97.37,0-1.11,.44-2.44,1.33-3.11,1.11-1.11,2.66-1.55,4.21-2,5.54-.89,30.39-.66,35.93-.22,2,0,6.65,.89,7.98,2.44,1.11,1.55,.22,6.88,.22,8.87-.67,29.72-3.55,59.66,.66,88.94,.67,4.44,2.44,9.09,5.55,12.2,8.43,8.43,24.62,8.65,33.05,.22,3.99-3.99,6.65-10.2,6.88-15.97,.44-25.06-2.44-50.13-3.77-75.19-.22-5.32-.89-10.65-.89-15.97,0-.89,0-2.22,.66-3.11,2-3.33,11.09-2.88,14.86-3.11,3.99-.22,23.73-.66,27.5-.44,2.66,.22,3.77,1.33,3.77,3.77,1.11,15.08,3.33,94.93,2,110.01-.66,7.99-1.77,15.97-4.66,23.51-3.11,7.54-8.21,15.08-15.3,19.3-7.54,4.44-16.64,6.21-25.29,7.54-11.76,1.77-23.95,2.22-35.71,1.11Z"/><path class="ae" d="M672.35,302.25c-3.55,0-4.88-5.77-5.77-9.09-1.77-6.88-3.11-13.75-4.66-20.41-14.2-.66-28.39,0-42.59-.66-1.55,5.77-3.11,11.76-4.66,17.52-1.11,3.55-2.66,9.32-6.43,9.09-10.65-.44-21.07-1.11-31.72-2-3.33-.44-12.42-.22-14.42-2.88-1.33-1.55-.89-3.99-.22-5.99,15.3-48.8,36.6-95.37,54.12-143.5,.89-2.44,3.77-10.87,5.99-12.42,1.11-.89,2.88-.22,4.44-.22,11.98,.44,24.18,.89,36.15,2.22,.89,0,4.44,.44,5.1,.67,3.33,1.33,4.88,10.65,5.99,14.2,6.21,19.52,41.92,126.43,45.91,146.61,.22,1.33,.22,2.88-.67,3.99-1.11,1.33-3.11,2-4.88,2.22-5.77,.89-35.93,.67-41.7,.67Zm-17.52-63.66c-3.33-14.64-6.43-29.28-11.31-43.47-5.32,14.2-9.76,28.61-14.2,43.25,8.43-.44,16.86-.44,25.51,.22Z"/><path class="ah" d="M743.99,297.14c-4.44-.22-14.86,.44-17.3-3.11-.89-1.33-1.11-2.88-1.11-4.44-.66-46.8,4.21-93.38,5.55-140.18,0-3.11-.22-12.42,1.77-14.86,2.22-2.44,10.43-1.33,13.97-1.11,6.65,.44,13.53,.44,20.18,.44,3.99,0,13.97-.66,16.41,2.44,2.22,2.66,.44,12.2,.22,15.53-2,33.71-4.66,67.21-6.43,100.7,6.21,.22,43.03,1.33,49.24,1.33,1.33,0,3.11,0,4.21,.89,1.78,1.33,1.11,5.99,.89,7.99,0,2.22-1.11,15.08-1.11,17.08-.22,3.55,.22,15.3-1.78,18.19-.89,1.33-2.88,2-4.44,2-10.65,.44-69.87-2.66-80.29-2.88Z"/><path class="u" d="M1047.97,214.39c-2.48-7.14-7.77-13.35-13.98-18.02-6.84-4.97-14.91-8.07-23.29-9.64,6.84-2.48,13.67-5.28,19.56-9.62,7.16-4.97,13.67-12.43,17.1-20.51,1.49-3.82,2.37-7.91,2.8-12.02-6.59-.63-12.69-2.22-17.71-5.17-14.41-8.47-18.8-24.99-17-36.11-11.19,6.38-30.61,4.24-37.16-1.95-7.66-7.25-9.58-18.16-8.7-29.55-26.04-.57-68.02,.77-78.79,1.24-14.3,.32-28.58-1.24-42.24,1.56-3.43,.93-7.77,2.8-5.6,5.6,.31,13.98,2.17,101.56,2.8,115.86,1.24,28.57,1.24,57.15,2.17,85.72,0,6.84,.63,13.67-.31,20.51,0,1.87,1.24,3.1,3.1,3.1,4.65,2.17,22.66,1.56,27.96,1.24,8.07-.61,16.15-1.24,24.22-1.54,12.11-.31,74.86-3.43,86.67-5.6,14.91-3.1,29.19-9.31,41.61-17.71,5.29-3.41,9.94-8.07,13.04-13.35,4.67-8.07,6.84-17.71,7.16-27.02,0-9.01,0-18.64-3.43-27.02Zm-137.91-88.84c12.43-.93,24.85,0,36.96,1.24,12.11,1.26,25.48,8.07,23.29,20.2-.61,4.34-3.71,8.07-7.14,10.86-3.41,2.49-7.77,4.04-12.11,4.67-13.35,2.8-27.02,2.49-40.7,4.04-.31-13.67-.31-27.33-.31-41Zm67.09,104.68c-3.41,5.58-10.87,8.7-17.71,9.94-6.21,.93-41,2.17-47.21,2.48-.61-11.81-.93-23.92-.93-35.71,4.67-.93,28.58-2.19,33.25-2.19,5.58,.32,11.48,.32,16.76,1.87,4.04,1.24,13.67,6.53,15.54,10.57,1.56,2.8,2.17,9.94,.31,13.04Z"/><path class="v" d="M1085.13,298.03c-4.21,0-14.86,.89-17.52-2.22-1.33-1.33-1.33-3.33-1.33-5.1-2-47.02,1.33-94.27,1.33-141.29,0-2.66-.44-11.09,1.33-13.31,2.22-2.88,10.87-1.77,14.42-1.77,7.76,.22,15.53,0,23.29-.22,3.33-.22,10.87-.22,12.87,2.22,2.22,2.44,.89,11.98,.67,15.08-1.33,45.91-3.77,91.6-3.55,137.29,0,2.44,0,7.32-2,8.43-1.11,.67-5.54,.89-6.88,1.11-7.54,.22-15.08,0-22.62-.22Z"/><path class="ad" d="M1173.19,297.14c-1.55-1.11-1.77-3.33-2-5.1-3.33-36.82-3.33-74.08-4.44-111.12-8.87,.44-17.52,.89-26.17,2-4.88,.44-11.53,2-11.53-2.66-.22-5.1-1.33-35.04-1.33-40.15,0-1.78,.22-3.99,2-4.21,41.26-3.33,82.73-2.66,124.21-4.44,2.44,0,5.54-.44,5.54,2,.67,11.98,1.55,23.73,1.33,35.71-.22,4.21,.67,10.43-3.33,10.65-5.1,.44-33.49,0-38.59,0,.45,35.93,.67,71.86,2.44,107.57,.22,2.44,.44,7.54-1.55,8.87-1.11,.89-6.66,1.11-8.21,1.33-6.87,.44-13.75,.66-20.63,.89-3.77,0-14.86,1.11-17.75-1.33Z"/><path class="af" d="M1288.97,298.03c-3.99,0-15.08,.66-17.97-2.22-1.11-1.11-1.33-3.33-1.33-5.1-2-47.02,1.33-94.04,1.33-141.07,0-3.11-.67-11.76,1.55-13.97,2.44-2,11.53-1.33,14.86-1.33,31.94,.66,63.88-1.55,95.82-.67,1.33,0,4.21,.22,4.66,1.55,.22,.67,.45,3.77,.45,4.44,.22,7.54-.45,15.08-.89,22.85,0,4.21,1.11,15.08-2.22,17.74-1.55,1.33-4.21,.66-6.21,.44-18.85-1.33-37.48,0-56.34,0-.22,5.1-.44,10.43-.66,15.53,10.65-.22,21.07,1.11,31.5,.67,4.44-.22,19.07-1.78,22.84,.22,3.33,1.77,2,9.32,1.78,13.09-.22,5.99-.44,12.2-.67,18.19,0,3.55-.67,8.87-4.21,9.32-4.66,.44-30.61-1.11-35.27-1.11-5.77-.22-11.53,.44-17.3,.66v15.53c17.3-.22,34.6-.22,51.9-.22,3.55,0,9.09-.89,9.76,2.66,1.78,10.42-.67,21.07-.67,31.5,.22,5.1,1.55,11.98-3.33,12.2-29.94,1.11-59.67-.22-89.39-.89Z"/><path class="x" d="M1413.62,303.13c-2.66-.44-5.55-1.55-6.88-3.77-1.55-2.66-1.55-6.21-2-9.32-.66-8.21-.89-16.41,.22-24.62,.44-2.22,1.33-7.76,3.55-8.87,1.33-.67,6.43,.22,7.99,.44,9.76,1.33,19.52,1.33,29.28,.44,4.21-.44,8.65-.89,12.64-2.44,2-.67,4.66-1.78,5.32-3.99,.44-1.77-1.11-3.77-2.44-5.1-4.21-3.55-9.54-5.77-14.64-7.54-14.64-5.77-29.72-13.53-39.7-25.95-7.76-9.32-12.42-21.96-11.98-34.16,.44-8.65,3.77-17.52,9.09-24.62,7.98-10.65,20.41-18.19,32.83-22.62,16.41-5.55,35.27-6.88,51.68-1.55,9.09,2.88,17.74,8.21,23.95,15.3,8.87,9.98,13.97,24.18,14.42,37.48,0,3.99,1.33,8.65-1.11,11.76-.89,1.55-2.88,2.44-4.66,2.66-10.65,2.22-21.51,2.66-32.38,2.66-4.21,0-10.87,.44-11.31-3.77-.67-7.32-.44-15.08-3.77-21.74-4.66-10.42-19.3-9.32-23.51,1.55-1.55,4.21-1.33,9.32,.44,13.53,1.55,3.33,4.44,5.99,7.32,8.43,9.54,7.54,21.29,12.42,32.6,17.3,5.99,2.66,11.98,5.32,17.08,9.32,21.29,17.52,18.19,50.13-4.66,65.65-10.42,7.32-23.29,10.87-35.93,12.86-17.52,2.66-35.71,2.44-53.45,.67Z"/></g><path class="ag" d="M1093.42,122.08c-5.64-3.46-18.8-10.25-22.01-15.11-9.21-13.95-2.66-24.25-2.34-33.34-9.94-6.21-21.85-9.39-25-17.83-3.69-9.88,3.25-24.69,9.05-34.53,7.57,3.89,13.48,7.23,16.28,9.36,12.85,9.78,24.89,21.22,32.1,35.46,2.36,4.65,3.61,10,3.9,15.28,.15,2.59,.06,5.14-.25,7.61-.05,.34-.07,.68-.12,1.02-1,7.86-3.5,15.57-6.63,22.65-1.4,3.17-3.03,6.39-4.97,9.44Z"/><polygon class="t" points="982.16 34.42 995.95 62.31 989.05 26.55 982.16 34.42"/><path class="ac" d="M1001.2,55.47c-.46-1.46-.63-51.57-.63-51.57l12.27-3.9-11.63,55.47Z"/></g></g></g></svg>