<?xml version="1.0" encoding="UTF-8"?><svg xmlns="http://www.w3.org/2000/svg" viewBox="0 0 464.15 464.15"><defs><style>.d{fill:#e2c937;}.e{fill:#d3722a;}</style></defs><g id="a"/><g id="b"><g id="c"><circle class="e" cx="232.07" cy="232.07" r="232.07"/><g><path class="d" d="M137.2,312.63c-3.09-.21-18.93,0-22.02-.82-3.7-.82-4.94-9.05-5.97-12.76-5.35-18.11-35.81-118.33-39.51-136.85-.21-1.03-.41-2.06,0-3.09,1.65-4.12,10.08-3.5,14.41-3.7,9.67,0,19.34-.21,28.81-.21,3.5,0,5.14,5.35,5.97,8.64,7.2,30.25,14.2,60.5,21.2,90.75,10.08-28.81,18.11-58.24,26.75-87.46,1.03-3.29,2.68-8.85,6.17-8.64,9.88,.41,19.55,1.03,29.22,1.85,3.09,.41,11.52,.21,13.58,2.68,1.65,2.06-.62,7.82-1.44,10.5-14.2,43.42-33.54,85.2-48.77,128.41-1.24,3.7-2.88,11.52-6.79,11.73-3.09,.41-18.52-.82-21.61-1.03Z"/><path class="d" d="M361.47,255.71c-1.7-4.91-5.35-9.19-9.62-12.4-4.7-3.42-10.26-5.56-16.02-6.63,4.7-1.7,9.41-3.63,13.46-6.62,4.93-3.42,9.41-8.56,11.77-14.11,1.02-2.63,1.63-5.44,1.93-8.27-4.53-.43-8.73-1.53-12.19-3.56-9.91-5.83-12.93-17.19-11.69-24.84-7.7,4.39-21.06,2.92-25.57-1.34-5.27-4.99-6.59-12.49-5.99-20.33-17.91-.4-46.8,.53-54.21,.85-9.84,.22-19.67-.85-29.06,1.07-2.36,.64-5.35,1.93-3.85,3.85,.21,9.62,1.49,69.88,1.93,79.72,.85,19.65,.85,39.32,1.49,58.98,0,4.7,.43,9.41-.21,14.11,0,1.28,.85,2.14,2.14,2.14,3.2,1.49,15.59,1.07,19.23,.85,5.56-.42,11.11-.85,16.67-1.06,8.33-.21,51.51-2.36,59.63-3.85,10.26-2.14,20.09-6.41,28.63-12.19,3.64-2.35,6.84-5.56,8.98-9.19,3.21-5.56,4.7-12.19,4.93-18.59,0-6.2,0-12.83-2.36-18.59Zm-94.89-61.12c8.56-.64,17.1,0,25.43,.85,8.33,.86,17.53,5.56,16.02,13.9-.42,2.99-2.56,5.56-4.91,7.47-2.35,1.72-5.35,2.78-8.33,3.21-9.19,1.93-18.59,1.72-28,2.78-.21-9.41-.21-18.8-.21-28.21Zm46.16,72.02c-2.35,3.84-7.48,5.99-12.19,6.84-4.27,.64-28.21,1.49-32.48,1.7-.42-8.12-.64-16.46-.64-24.57,3.21-.64,19.67-1.51,22.88-1.51,3.84,.22,7.9,.22,11.53,1.28,2.78,.85,9.41,4.49,10.69,7.27,1.07,1.93,1.49,6.84,.21,8.98Z"/><path class="d" d="M392.74,192.19c-3.88-2.38-12.93-7.05-15.15-10.39-6.34-9.6-1.83-16.68-1.61-22.94-6.84-4.28-15.03-6.46-17.2-12.27-2.54-6.8,2.23-16.99,6.23-23.76,5.21,2.68,9.28,4.97,11.2,6.44,8.84,6.73,17.13,14.6,22.08,24.4,1.62,3.2,2.48,6.88,2.68,10.51,.1,1.78,.04,3.54-.17,5.24-.03,.23-.05,.47-.08,.7-.69,5.41-2.41,10.71-4.56,15.58-.96,2.18-2.09,4.39-3.42,6.49Z"/><polygon class="d" points="316.19 131.88 325.67 151.07 320.93 126.47 316.19 131.88"/><path class="d" d="M329.29,146.36c-.32-1-.44-35.48-.44-35.48l8.44-2.68-8,38.16Z"/></g></g></g></svg>